<?xml version="1.0" encoding="UTF-8"?>
<svg id="Layer_1" xmlns="http://www.w3.org/2000/svg" version="1.1" viewBox="0 0 157.28 157.28">
  <!-- Generator: Adobe Illustrator 30.3.0, SVG Export Plug-In . SVG Version: 2.1.3 Build 182)  -->
  <defs>
    <style>
      .st0 {
        fill: #cc2027;
      }
    </style>
  </defs>
  <path class="st0" d="M82.25,127.92C64.05,97.71,31.38,152.41.27,89.83c15.42-14.22,31.87-8.48,38.64-28.28,6.53-19.1,22.08-12.72,20.56-26.91l-3-28.06c12.68,8.14,17.81,15.74,27.91,26.74L87.79,0c16.47,12.7,34.27,34.32,31.53,53.81,12.68,19.02,24.29,29.49,37.69,45.97-32.55,12.42-34.78,55.61-68.21,57.5-.63-11.03-1.42-20.84-6.55-29.36ZM69.45,66.78c.57-1.92-6.98-4.42-8.42-2.95l-6.02,6.08c4.28,4.31,12.81,2.81,14.44-3.12Z"/>
</svg>